<svg xmlns="http://www.w3.org/2000/svg" width="512" height="512" viewBox="0 0 512 512"><defs><linearGradient id="grad-0" x1="0.8535533905932737" y1="0.1464466094067262" x2="0.14644660940672627" y2="0.8535533905932737"><stop offset="0" stop-color="#63A1FD"/><stop offset="0.55" stop-color="#2875E8"/><stop offset="1" stop-color="#2875E8"/></linearGradient><linearGradient id="grad-2" x1="0.8535533905932737" y1="0.1464466094067262" x2="0.14644660940672627" y2="0.8535533905932737"><stop offset="0" stop-color="#FFFFFF"/><stop offset="1" stop-color="#EDE7FF"/></linearGradient><clipPath id="clip-7"><rect x="0" y="0" width="512" height="512"/></clipPath></defs><g clip-path="url(#clip-7)"><path data-name="icon-tile" d="M114 0H398C486.11218459088 0 512 25.887815409119995 512 114V398C512 486.11218459088 486.11218459088 512 398 512H114C25.887815409119995 512 0 486.11218459088 0 398V114C0 25.887815409119995 25.887815409119995 0 114 0Z" fill="url(#grad-0)" stroke="none"/><g transform="rotate(115.6,208,250)"><path data-name="edge-top-left" d="M 105.1 242 H 310.9 A 8 8 0 0 1 318.9 250 V 250 A 8 8 0 0 1 310.9 258 H 105.1 A 8 8 0 0 1 97.1 250 V 250 A 8 8 0 0 1 105.1 242 Z" fill="rgba(255,255,255,0.85)" stroke="none"/></g><g transform="rotate(64.4,304,250)"><path data-name="edge-top-right" d="M 201.1 242 H 406.9 A 8 8 0 0 1 414.9 250 V 250 A 8 8 0 0 1 406.9 258 H 201.1 A 8 8 0 0 1 193.1 250 V 250 A 8 8 0 0 1 201.1 242 Z" fill="rgba(255,255,255,0.85)" stroke="none"/></g><path data-name="edge-bottom" d="M 168 342 H 344 A 8 8 0 0 1 352 350 V 350 A 8 8 0 0 1 344 358 H 168 A 8 8 0 0 1 160 350 V 350 A 8 8 0 0 1 168 342 Z" fill="rgba(255,255,255,0.85)" stroke="none"/><path data-name="node-top" d="M 234 98 H 278 C 301.1874169976 98 308 104.8125830024 308 128 V 172 C 308 195.1874169976 301.1874169976 202 278 202 H 234 C 210.8125830024 202 204 195.1874169976 204 172 V 128 C 204 104.8125830024 210.8125830024 98 234 98 Z" fill="url(#grad-2)" stroke="none"/><ellipse data-name="node-bottom-left" cx="160" cy="350" rx="44" ry="44" fill="url(#grad-2)" stroke="none"/><ellipse data-name="node-bottom-right" cx="352" cy="350" rx="44" ry="44" fill="url(#grad-2)" stroke="none"/></g></svg>
